# AST/ASF file generated using VICON BodyLanguage
# -----------------------------------------------
:version 1.10
:name VICON
:units
  mass 1.0
  length 0.45
  angle deg
:documentation
   .ast/.asf automatically generated from VICON data using
   VICON BodyBuilder and BodyLanguage model FoxedUp or BRILLIANT.MOD
:root
   order TX TY TZ RX RY RZ
   axis XYZ
   position 0 0 0  
   orientation 0 0 0 
:bonedata
  begin
     id 1 
     name lhipjoint
     direction 0.621036 -0.695554 0.361275 
     length 2.46325 
     axis 0 0 0  XYZ
  end
  begin
     id 2 
     name lfemur
     direction 0.34202 -0.939693 0  
     length 6.54784  
     axis 0 0 20  XYZ
    dof rx ry rz
    limits (-160.0 20.0)
           (-70.0 70.0)
           (-60.0 70.0)
  end
  begin
     id 3 
     name ltibia
     direction 0.34202 -0.939693 0   
     length 7.84737   
     axis 0 0 20   XYZ
    dof rx
    limits (-10.0 170.0)
  end
  begin
     id 4 
     name lfoot
     direction 0.0790693 -0.217241 0.97291   
     length 2.59747   
     axis -90 7.62852e-016 20   XYZ
    dof rx rz
    limits (-45.0 90.0)
           (-70.0 20.0)
  end
  begin
     id 5 
     name ltoes
     direction 1.53572e-011 -4.21898e-011 1   
     length 1.29919   
     axis -90 7.62852e-016 20   XYZ
    dof rx
    limits (-90.0 20.0)
  end
  begin
     id 6 
     name rhipjoint
     direction -0.602353 -0.708375 0.367935   
     length 2.41867  
     axis 0 0 0  XYZ 
  end
  begin
     id 7 
     name rfemur
     direction -0.34202 -0.939693 0   
     length 6.92065   
     axis 0 0 -20   XYZ
    dof rx ry rz
    limits (-160.0 20.0)
           (-70.0 70.0)
           (-70.0 60.0)
  end
  begin
     id 8 
     name rtibia
     direction -0.34202 -0.939693 0   
     length 7.88883   
     axis 0 0 -20   XYZ
    dof rx
    limits (-10.0 170.0)
 end
 begin
     id 9 
     name rfoot
     direction -0.0768692 -0.211196 0.974416   
     length 2.43714  
     axis -90 -7.62852e-016 -20   XYZ
    dof rx rz
    limits (-45.0 90.0)
           (-20.0 70.0)
  end
  begin
     id 10 
     name rtoes
     direction -1.53575e-011 -4.21933e-011 1   
     length 1.22113   
     axis -90 -7.62852e-016 -20   XYZ
    dof rx
    limits (-90.0 20.0)
  end
  begin
     id 11 
     name lowerback
     direction 0.0197937 0.98943 -0.143655   
     length 2.16931   
     axis 0 0 0   XYZ
    dof rx ry rz
    limits (-20.0 45.0)
           (-30.0 30.0)
           (-30.0 30.0)
  end
  begin
     id 12 
     name upperback
     direction -0.00183968 0.999975 0.00684288   
     length 2.17221   
     axis 0 0 0   XYZ
    dof rx ry rz
    limits (-20.0 45.0)
           (-30.0 30.0)
           (-30.0 30.0)
  end
  begin
     id 13 
     name thorax
     direction -0.00950244 0.997208 0.0740685   
     length 2.22549   
     axis 0 0 0   XYZ
    dof rx ry rz
    limits (-20.0 45.0)
           (-30.0 30.0)
           (-30.0 30.0)
  end
  begin
     id 14 
     name lowerneck
     direction 0.0218238 0.996215 0.0841425   
     length 1.77269   
     axis 0 0 0   XYZ
    dof rx ry rz
    limits (-20.0 45.0)
           (-30.0 30.0)
           (-30.0 30.0)
  end
  begin
     id 15 
     name upperneck
     direction -0.00430652 0.994214 -0.107332   
     length 1.76534   
     axis 0 0 0   XYZ
    dof rx ry rz
    limits (-20.0 45.0)
           (-30.0 30.0)
           (-30.0 30.0)
  end
  begin
     id 16
     name head
     direction -0.00328946 0.998959 -0.0454998  
     length 1.82634  
     axis 0 0 0   XYZ
    dof rx ry rz
    limits (-20.0 45.0)
           (-30.0 30.0)
           (-30.0 30.0)
  end
  begin
     id 17 
     name lclavicle
     direction 0.970962 0.239191 0.00450212  
     length 3.84872  
     axis 0 0 0   XYZ
    dof ry rz
    limits (-20.0 10.0)
           (0.0 20.0)
  end
  begin
     id 18 
     name lhumerus
     direction 1 -4.48966e-011 5.74696e-028   
     length 5.22771   
     axis 180 -30 -90   XYZ
    dof rx ry rz
    limits (-60.0 90.0)
           (-90.0 90.0)
           (-90.0 90.0)
  end
  begin
     id 19
     name lradius
     direction 1 -4.4896e-011 4.25109e-027   
     length 3.45251   
     axis 180 -30 -90   XYZ
    dof rx
    limits (-10.0 170.0)
  end
  begin
     id 20
     name lwrist
     direction 1 -4.48971e-011 1.15382e-027   
     length 1.72626   
     axis -5.52449e-016 90 90   XYZ
    dof ry
    limits (-180.0 0.0)
 end
  begin
     id 21 
     name lhand
     direction 1 -4.49034e-011 2.30765e-027   
     length 0.552119   
     axis -1.47248e-015 90 90   XYZ
    dof rx rz
    limits (-90.0 90.0)
           (-45.0 45.0)
  end
  begin
     id 22 
     name lfingers
     direction 1 -4.48951e-011 4.61529e-027   
     length 0.445133   
     axis -2.94495e-015 90 90   XYZ
    dof rx
    limits (0.0 90.0)
  end
  begin
     id 23
     name lthumb
     direction 0.707107 -6.34991e-011 0.707107   
     length 0.639124   
     axis -90 45 2.85299e-015   XYZ
    dof rx rz
    limits (-45.0 45.0)
           (-45.0 45.0)
  end
  begin
     id 24 
     name rclavicle
     direction -0.97424 0.222511 -0.0366699   
     length 3.73439  
     axis 0 0 0   XYZ 
    dof ry rz
    limits (-10.0 20.0)
           (-20.0 0.0)
  end
  begin
     id 25 
     name rhumerus
     direction -1 -4.48956e-011 -4.97258e-028  
     length 5.2398   
     axis 180 30 90   XYZ
    dof rx ry rz
    limits (-90.0 60.0)
           (-90.0 90.0)
           (-90.0 90.0)
  end
  begin
     id 26 
     name rradius
     direction -1 -4.4897e-011 -1.72611e-027   
     length 3.48042   
     axis 180 30 90   XYZ
    dof rx
    limits (-10.0 170.0)
  end
  begin
     id 27 
     name rwrist
     direction -1 -4.48976e-011 1.15382e-027   
     length 1.74021   
     axis -5.52449e-016 -90 -90   XYZ
    dof ry
    limits (-180.0 0.0)
  end
  begin
     id 28
     name rhand
     direction -1 -4.48963e-011 2.30765e-027   
     length 0.618713   
     axis -1.47248e-015 -90 -90   XYZ
    dof rx rz
    limits (-90.0 90.0)
           (-45.0 45.0)
  end
  begin
     id 29
     name rfingers
     direction -1 -4.4888e-011 4.61529e-027   
     length 0.498823   
     axis -2.94495e-015 -90 -90   XYZ
    dof rx
    limits (0.0 90.0)
  end
  begin
     id 30
     name rthumb
     direction -0.707107 -6.34968e-011 0.707107   
     length 0.716213   
     axis -90 -45 -2.85299e-015   XYZ
    dof rx rz
    limits (-45.0 45.0)
           (-45.0 45.0)
  end
:hierarchy
  begin
    root lhipjoint rhipjoint lowerback
    lhipjoint lfemur
    lfemur ltibia
    ltibia lfoot
    lfoot ltoes
    rhipjoint rfemur
    rfemur rtibia
    rtibia rfoot
    rfoot rtoes
    lowerback upperback
    upperback thorax
    thorax lowerneck lclavicle rclavicle
    lowerneck upperneck
    upperneck head
    lclavicle lhumerus
    lhumerus lradius
    lradius lwrist
    lwrist lhand lthumb
    lhand lfingers
    rclavicle rhumerus
    rhumerus rradius
    rradius rwrist
    rwrist rhand rthumb
    rhand rfingers
  end

#!OML:ASF G:\JayActor3\Patient Classification 1\Patient 1\Session 5\male.ASF
:FULLY-SPECIFIED
:DEGREES
219
root 44.0065 16.0918 -4.62164 309.175 -86.5962 -290.246
lowerback 22.472 -0.941563 -1.87352
upperback 3.82306 -1.9759 -0.599466
thorax -8.30926 -1.0022 1.00375
lowerneck -0.825881 -0.240092 1.66709
upperneck -4.41142 -0.304614 1.5477
head -1.21375 -0.219397 0.202176
rclavicle 2.83268e-014 1.39149e-014
rhumerus -29.9987 -9.03394 -85.7127
rradius 25.6608
rwrist 0.718961
rhand -20.0863 -6.50913
rfingers 7.12502
rthumb 6.25647 -36.3967
lclavicle 2.83268e-014 1.39149e-014
lhumerus -32.6587 4.66119 84.403
lradius 28.561
lwrist 25.2854
lhand -19.196 12.5126
lfingers 7.12502
lthumb 7.116 42.373
rfemur -55.6188 5.31346 16.1565
rtibia 39.0267
rfoot -10.0921 -15.0089
rtoes 6.22874
lfemur 5.50838 8.01055 -23.0107
ltibia 4.33717
lfoot -9.37178 1.49553
ltoes -18.0518
220
root 43.8698 16.119 -4.65479 312.415 -86.8723 -293.347
lowerback 22.4735 -0.930679 -1.59288
upperback 3.79943 -1.88576 -0.514141
thorax -8.34424 -0.964408 0.911078
lowerneck -0.878043 -0.251104 1.66905
upperneck -4.34737 -0.319235 1.62086
head -1.18472 -0.226744 0.22414
rclavicle 1.05356e-014 -1.48095e-014
rhumerus -30.014 -9.21789 -85.7066
rradius 25.4523
rwrist 0.86094
rhand -20.071 -6.55924
rfingers 7.12502
rthumb 6.27124 -36.4464
lclavicle 1.05356e-014 -1.48095e-014
lhumerus -32.5742 4.62513 84.381
lradius 28.5113
lwrist 25.1987
lhand -19.0803 12.442
lfingers 7.12502
lthumb 7.22761 42.2986
rfemur -55.1858 5.61739 16.6037
rtibia 38.9112
rfoot -10.1018 -15.0091
rtoes 7.1368
lfemur 2.99926 8.06194 -22.4952
ltibia 9.2959
lfoot -10.0983 1.52904
ltoes -18.4985
221
root 43.7303 16.1791 -4.6892 316.4 -87.1554 -297.187
lowerback 22.4708 -0.91766 -1.3052
upperback 3.77769 -1.79064 -0.423274
thorax -8.3744 -0.924661 0.818754
lowerneck -0.943548 -0.262983 1.66588
upperneck -4.28569 -0.335701 1.68896
head -1.1542 -0.234831 0.245348
rclavicle -4.87022e-015 -1.91827e-014
rhumerus -30.0361 -9.34834 -85.7164
rradius 25.2733
rwrist 1.01437
rhand -20.0592 -6.59736
rfingers 7.12502
rthumb 6.28269 -36.4842
lclavicle -4.87022e-015 -1.91827e-014
lhumerus -32.5001 4.58284 84.3648
lradius 28.5177
lwrist 25.1218
lhand -18.9502 12.3542
lfingers 7.12502
lthumb 7.35326 42.2064
rfemur -54.5934 5.94776 17.0611
rtibia 38.6607
rfoot -10.2134 -15.0015
rtoes 8.00663
lfemur 1.1609 8.10444 -21.9463
ltibia 12.9131
lfoot -10.0535 1.64953
ltoes -18.6722
222
root 43.5959 16.2063 -4.72299 321.135 -87.4294 -301.774
lowerback 22.4775 -0.904476 -1.0222
upperback 3.7539 -1.69664 -0.332294
thorax -8.41098 -0.885432 0.729729
lowerneck -0.999543 -0.27219 1.66626
upperneck -4.24401 -0.348711 1.74065
head -1.13162 -0.241329 0.260964
rclavicle -1.80894e-014 -3.97569e-016
rhumerus -30.0618 -9.41906 -85.7438
rradius 25.1202
rwrist 1.17778
rhand -20.035 -6.63242
rfingers 7.12502
rthumb 6.30605 -36.5186
lclavicle -1.80894e-014 -3.97569e-016
lhumerus -32.451 4.53376 84.3528
lradius 28.5848
lwrist 25.0865
lhand -18.8261 12.2652
lfingers 7.12502
lthumb 7.47296 42.1132
rfemur -54.1227 6.25651 17.5343
rtibia 38.4618
rfoot -10.2909 -14.974
rtoes 8.83389
lfemur -0.467469 8.32974 -21.3793
ltibia 16.1722
lfoot -9.73137 1.60368
ltoes -18.5661
223
root 43.4632 16.2334 -4.75632 326.708 -87.6898 -307.198
lowerback 22.4916 -0.893253 -0.749427
upperback 3.7291 -1.60773 -0.241201
thorax -8.45164 -0.848522 0.648241
lowerneck -1.03685 -0.275085 1.66594
upperneck -4.23513 -0.35295 1.77568
head -1.12249 -0.243781 0.271664
rclavicle 4.96962e-016 9.64106e-015
rhumerus -30.0837 -9.43758 -85.7841
rradius 24.9916
rwrist 1.34724
rhand -19.9769 -6.65979
rfingers 7.12502
rthumb 6.36211 -36.5442
lclavicle 4.96962e-016 9.64106e-015
lhumerus -32.4254 4.48998 84.3458
lradius 28.7067
lwrist 25.118
lhand -18.7181 12.1882
lfingers 7.12502
lthumb 7.57726 42.0325
rfemur -53.637 6.52683 18.0283
rtibia 38.226
rfoot -10.356 -14.8995
rtoes 9.6114
lfemur -2.01991 8.55779 -20.8136
ltibia 19.255
lfoot -9.20167 1.56964
ltoes -18.1653
224
root 43.3329 16.2603 -4.78847 333.056 -87.9169 -313.395
lowerback 22.5225 -0.886951 -0.492508
upperback 3.6986 -1.5296 -0.157329
thorax -8.50659 -0.816413 0.571421
lowerneck -1.04709 -0.271545 1.67026
upperneck -4.25653 -0.347961 1.79402
head -1.12745 -0.242033 0.276578
rclavicle 1.19768e-014 -1.10325e-014
rhumerus -30.104 -9.41558 -85.8333
rradius 24.8855
rwrist 1.51219
rhand -19.885 -6.68086
rfingers 7.12502
rthumb 6.45086 -36.5626
lclavicle 1.19768e-014 -1.10325e-014
lhumerus -32.4229 4.44627 84.3431
lradius 28.8691
lwrist 25.2318
lhand -18.635 12.1461
lfingers 7.12502
lthumb 7.65746 41.9875
rfemur -53.2046 6.73271 18.529
rtibia 38.0874
rfoot -10.4562 -14.7528
rtoes 10.3315
lfemur -3.66773 8.75354 -20.2757
ltibia 22.4755
lfoot -8.60597 1.56476
ltoes -17.465
